<svg width="32" height="32" fill="none" xmlns="http://www.w3.org/2000/svg"><path fill-rule="evenodd" clip-rule="evenodd" d="M15.951 1C7.144 1 0 7.884 0 16.371c0 6.79 4.6 12.542 10.862 14.617.783.094 1.077-.377 1.077-.755v-2.64c-4.404.943-5.382-2.075-5.382-2.075-.685-1.791-1.762-2.263-1.762-2.263-1.468-.943.098-.943.098-.943 1.566.094 2.446 1.603 2.446 1.603 1.468 2.358 3.72 1.698 4.6 1.32.098-1.037.587-1.697.978-2.074-3.523-.377-7.241-1.698-7.241-7.639 0-1.697.587-3.017 1.663-4.149-.097-.283-.685-1.886.196-3.96 0 0 1.37-.378 4.404 1.603 1.272-.378 2.642-.472 4.012-.472 1.37 0 2.74.189 4.012.472 3.034-1.98 4.404-1.604 4.404-1.604.88 2.075.293 3.678.196 4.055.978 1.038 1.663 2.452 1.663 4.15 0 5.94-3.718 7.167-7.241 7.544.587.471 1.076 1.414 1.076 2.829v4.243c0 .378.294.85 1.077.755C27.498 28.913 32 23.16 32 16.37 31.902 7.884 24.758 1 15.951 1z" fill="#fff"/></svg>