<svg width="32" height="32" fill="none" xmlns="http://www.w3.org/2000/svg"><path d="M24.333 8C28.568 8 32 11.377 32 15.543v13.2c0 .493-.293.94-.75 1.145a1.294 1.294 0 0 1-1.37-.2l-3.665-3.155a3.87 3.87 0 0 0-2.524-.933h-8.302C11.86 25.6 9 22.786 9 19.314v-5.028C9 10.814 11.86 8 15.389 8h8.944z" fill="#7D7F88"/><path d="M7.667 0C3.432 0 0 3.377 0 7.543v13.2c0 .493.293.94.75 1.145.456.203.992.126 1.37-.2l3.665-3.155a3.87 3.87 0 0 1 2.524-.933h8.302C20.14 17.6 23 14.786 23 11.314V6.286C23 2.814 20.14 0 16.611 0H7.667z" fill="#fff"/><circle cx="15" cy="9" r="2" fill="#262A39"/><circle cx="8" cy="9" r="2" fill="#262A39"/></svg>