<svg width="32" height="32" fill="none" xmlns="http://www.w3.org/2000/svg"><path d="M24.715 17.003c-.04-4.053 3.298-5.996 3.447-6.093-1.875-2.75-4.797-3.127-5.838-3.17-2.487-.253-4.852 1.466-6.114 1.466-1.259 0-3.206-1.43-5.268-1.392-2.71.04-5.21 1.58-6.605 4.012-2.816 4.897-.721 12.151 2.023 16.123 1.341 1.944 2.94 4.127 5.04 4.049 2.022-.08 2.787-1.311 5.231-1.311 2.445 0 3.132 1.311 5.271 1.27 2.176-.04 3.555-1.98 4.886-3.93 1.54-2.256 2.175-4.44 2.212-4.551-.048-.022-4.243-1.633-4.285-6.473zM20.695 5.11C21.809 3.755 22.56 1.875 22.356 0c-1.605.065-3.55 1.072-4.702 2.423-1.034 1.2-1.938 3.114-1.696 4.952 1.792.14 3.621-.913 4.737-2.265z" fill="#4360DF"/></svg>