<svg width="32" height="32" fill="none" xmlns="http://www.w3.org/2000/svg"><path fill-rule="evenodd" clip-rule="evenodd" d="M16.027 18H5.5a5.5 5.5 0 1 0 0 11h13a5.488 5.488 0 0 0 4.214-1.966A4.492 4.492 0 0 1 21 23.5V23h-.5a4.5 4.5 0 0 1-4.473-5zm3.048.03A1.5 1.5 0 0 0 20.5 20h2.243a5.49 5.49 0 0 0-3.668-1.97z" fill="#fff"/><path fill-rule="evenodd" clip-rule="evenodd" d="M24 23.5a1.5 1.5 0 0 0 3 0V20h3.5a1.5 1.5 0 0 0 0-3H27v-3.5a1.5 1.5 0 0 0-3 0V17h-3.5a1.5 1.5 0 0 0 0 3H24v3.5z" fill="#7D7F88"/><circle cx="13" cy="8" r="5" fill="#fff"/></svg>