<svg width="32" height="32" fill="none" xmlns="http://www.w3.org/2000/svg"><path d="M4.925 10.7C3.862 10.7 3 11.459 3 12.397v7.258c0 .938.862 1.698 1.925 1.698 1.062 0 1.925-.76 1.925-1.698v-7.258c0-.937-.863-1.697-1.925-1.697zm14.56-7.098l1.682-1.69a.535.535 0 0 0 0-.756.529.529 0 0 0-.75 0L18.345 3.24a9.741 9.741 0 0 0-4.644-.006l-2.066-2.076a.529.529 0 0 0-.751 0 .535.535 0 0 0 0 .754l1.673 1.682C9.766 4.672 7.825 7.01 7.825 9.73c0 .033 16.37.002 16.37 0 .002-2.712-1.928-5.046-4.71-6.128zm-5.882 4.192a.965.965 0 0 1-.963-.968c0-.535.43-.969.963-.969.533 0 .963.434.963.969a.966.966 0 0 1-.963.968zm4.816 0a.965.965 0 0 1-.963-.968c0-.535.43-.969.963-.969.532 0 .963.434.963.969a.966.966 0 0 1-.963.968zm8.657 2.906c-1.063 0-1.926.759-1.926 1.697v7.258c0 .938.863 1.698 1.926 1.698S29 20.592 29 19.655v-7.258c0-.937-.863-1.697-1.924-1.697zM7.826 22.313c0 1.6 1.288 2.897 2.879 2.903v5.086c0 .938.862 1.698 1.925 1.698 1.062 0 1.924-.76 1.924-1.698v-5.086h2.892v5.086c0 .938.862 1.698 1.925 1.698 1.062 0 1.924-.76 1.924-1.698v-5.086h.013c1.595 0 2.889-1.3 2.889-2.903V10.697H7.827v11.616h-.002z" fill="#4360DF"/></svg>