<svg width="32" height="32" fill="none" xmlns="http://www.w3.org/2000/svg"><path d="M29 16c0 7.18-5.82 13-13 13S3 23.18 3 16 8.82 3 16 3s13 5.82 13 13z" fill="#4360DF"/><path d="M9.293 16c0 .927-.737 1.678-1.647 1.678C6.737 17.678 6 16.927 6 16c0-.927.737-1.678 1.646-1.678.91 0 1.647.751 1.647 1.678zm9.368 8.16a1.63 1.63 0 0 0 2.25.615 1.697 1.697 0 0 0 .602-2.293 1.629 1.629 0 0 0-2.25-.613 1.696 1.696 0 0 0-.602 2.292zm2.852-14.643a1.695 1.695 0 0 0-.603-2.292 1.63 1.63 0 0 0-2.249.614 1.696 1.696 0 0 0 .603 2.293 1.629 1.629 0 0 0 2.249-.615zm-5.573 1.696c2.454 0 4.467 1.918 4.677 4.363L23 15.538a7.25 7.25 0 0 0-2.078-4.656 2.273 2.273 0 0 1-1.994-.158 2.358 2.358 0 0 1-1.13-1.683 6.953 6.953 0 0 0-1.858-.252 6.937 6.937 0 0 0-3.138.746l1.16 2.123a4.612 4.612 0 0 1 1.978-.445zM11.244 16c0-1.62.79-3.051 1.997-3.917l-1.224-2.085A7.219 7.219 0 0 0 9.1 14.16c.527.433.865 1.096.865 1.84s-.338 1.407-.865 1.84a7.222 7.222 0 0 0 2.918 4.162l1.224-2.085A4.809 4.809 0 0 1 11.244 16zm4.696 4.787c-.706 0-1.377-.16-1.978-.445l-1.16 2.122a6.935 6.935 0 0 0 3.138.747 6.94 6.94 0 0 0 1.858-.252 2.355 2.355 0 0 1 1.13-1.683 2.273 2.273 0 0 1 1.994-.157A7.253 7.253 0 0 0 23 16.462l-2.383-.038c-.21 2.445-2.224 4.363-4.677 4.363z" fill="#fff"/></svg>