<?xml version="1.0" encoding="UTF-8"?>
<svg width="24px" height="24px" viewBox="0 0 24 24" version="1.1" xmlns="http://www.w3.org/2000/svg" xmlns:xlink="http://www.w3.org/1999/xlink">
    <!-- Generator: Sketch 49.3 (51167) - http://www.bohemiancoding.com/sketch -->
    <title>icon_gh copy 34</title>
    <desc>Created with Sketch.</desc>
    <defs></defs>
    <g id="Page-1" stroke="none" stroke-width="1" fill="none" fill-rule="evenodd">
        <g id="Artboard-Copy-23" transform="translate(-1120.000000, -48.000000)" fill="#FFFFFF">
            <g id="Group-29">
                <g id="social" transform="translate(1112.000000, 40.000000)">
                    <g id="Group-30">
                        <g id="icon_github" transform="translate(8.000000, 8.000000)">
                            <path d="M2.5,12.2280481 C2.5,16.305044 5.22178397,19.7634377 8.99682311,20.9836474 C9.47212929,21.0686202 9.64533902,20.783678 9.64533902,20.5389563 C9.64533902,20.3202929 9.63717425,19.7396453 9.63250867,18.9697916 C6.9900396,19.5272133 6.43250253,17.7325873 6.43250253,17.7325873 C6.00035299,16.6664617 5.37749777,16.3826525 5.37749777,16.3826525 C4.51494828,15.8105022 5.44281592,15.8218319 5.44281592,15.8218319 C6.39634427,15.8869777 6.89789435,16.772961 6.89789435,16.772961 C7.7452807,18.1829433 9.12162743,17.7756402 9.66283496,17.5394158 C9.74914822,16.9434731 9.99467448,16.5367365 10.2658614,16.3061769 C8.15643513,16.0733514 5.93853402,15.2814047 5.93853402,11.7454025 C5.93853402,10.7381914 6.30886461,9.91395502 6.91655668,9.26929457 C6.81857945,9.03590256 6.4925719,8.09723616 7.00986832,6.82717576 C7.00986832,6.82717576 7.80709967,6.57905513 9.62201111,7.77320648 C10.379585,7.56813874 11.1925627,7.46617136 12.0002916,7.46220596 C12.8074373,7.46617136 13.6198318,7.56813874 14.3785721,7.77320648 C16.1923171,6.57905513 16.9883821,6.82717576 16.9883821,6.82717576 C17.5068449,8.09723616 17.1808373,9.03590256 17.0834433,9.26929457 C17.6923018,9.91395502 18.0597164,10.7381914 18.0597164,11.7454025 C18.0597164,15.2904685 15.8383161,16.070519 13.7224746,16.2988126 C14.0630621,16.5837548 14.3669081,17.1468414 14.3669081,18.0078993 C14.3669081,19.2411381 14.3552442,20.2364531 14.3552442,20.5389563 C14.3552442,20.7859439 14.5267043,21.0731521 15.0084257,20.9830809 C18.7805488,19.7600388 21.5,16.303911 21.5,12.2280481 C21.5,7.13137845 17.2461555,3 11.9991252,3 C6.7538445,3 2.5,7.13137845 2.5,12.2280481 Z" id="Fill-3"></path>
                        </g>
                    </g>
                </g>
            </g>
        </g>
    </g>
</svg>