<?xml version="1.0" encoding="UTF-8"?>
<svg width="24px" height="24px" viewBox="0 0 24 24" version="1.1" xmlns="http://www.w3.org/2000/svg" xmlns:xlink="http://www.w3.org/1999/xlink">
    <!-- Generator: Sketch 49.3 (51167) - http://www.bohemiancoding.com/sketch -->
    <title>Twitter_Logo_Blue</title>
    <desc>Created with Sketch.</desc>
    <defs></defs>
    <g id="Page-1" stroke="none" stroke-width="1" fill="none" fill-rule="evenodd">
        <g id="Artboard-Copy-23" transform="translate(-1064.000000, -48.000000)" fill="#FFFFFF">
            <g id="Group-29">
                <g id="social-copy" transform="translate(1056.000000, 40.000000)">
                    <g id="Group-30">
                        <g id="Group-32" transform="translate(8.000000, 8.000000)">
                            <path d="M19.270012,8.87718627 C19.270012,8.72675074 19.266952,8.57699254 19.260016,8.42804714 C19.940968,7.9377262 20.532976,7.32589182 21,6.62925542 C20.375012,6.90574251 19.702492,7.0921444 18.996992,7.17613362 C19.717112,6.74616299 20.269952,6.06557937 20.530664,5.25440606 C19.856648,5.65233886 19.110484,5.941763 18.31604,6.0976172 C17.679628,5.4223845 16.773188,5 15.770188,5 C13.843884,5 12.281856,6.55590032 12.281856,8.47390255 C12.281856,8.74659658 12.312524,9.01163676 12.372296,9.26604282 C9.47366,9.12089048 6.90326,7.73838726 5.1832,5.63628608 C4.883388,6.14956859 4.710872,6.74616299 4.710872,7.38238134 C4.710872,8.58776213 5.326612,9.65178363 6.262904,10.2742521 C5.690888,10.2567092 5.153348,10.10011 4.683264,9.83960792 C4.682448,9.85410283 4.682448,9.86866548 4.682448,9.88390546 C4.682448,11.5666701 5.884892,12.9713221 7.480648,13.2898716 C7.187772,13.3692549 6.87946,13.4120623 6.56122,13.4120623 C6.336548,13.4120623 6.117996,13.3899136 5.905564,13.3494091 C6.349604,14.7296771 7.637116,15.7340934 9.163852,15.7624058 C7.969908,16.6942121 6.466156,17.2494892 4.832048,17.2494892 C4.550596,17.2494892 4.27302,17.2335041 4,17.2013986 C5.543668,18.1867141 7.376404,18.7619048 9.346364,18.7619048 C15.761756,18.7619048 19.270012,13.4678068 19.270012,8.87718627 Z" id="Twitter_Logo_Blue"></path>
                        </g>
                    </g>
                </g>
            </g>
        </g>
    </g>
</svg>