<?xml version="1.0" encoding="UTF-8"?>
<svg width="52px" height="52px" viewBox="0 0 52 52" version="1.1" xmlns="http://www.w3.org/2000/svg" xmlns:xlink="http://www.w3.org/1999/xlink">
    <!-- Generator: Sketch 49.3 (51167) - http://www.bohemiancoding.com/sketch -->
    <title>Combined Shape</title>
    <desc>Created with Sketch.</desc>
    <defs></defs>
    <g id="Page-1" stroke="none" stroke-width="1" fill="none" fill-rule="evenodd">
        <g id="Group-5" transform="translate(-120.000000, -120.000000)">
            <path d="M2.5,146 C2.5,225.253002 66.7469976,289.5 146,289.5 C225.253002,289.5 289.5,225.253002 289.5,146 C289.5,66.7475526 225.252706,2.5 146,2.5 C66.7472939,2.5 2.5,66.7475526 2.5,146 Z" id="Fill-131-Copy-5" stroke="#435CE7" stroke-width="5" opacity="0.140000001"></path>
            <path d="M32.5,146 C32.5,208.684431 83.315569,259.5 146,259.5 C208.684431,259.5 259.5,208.684431 259.5,146 C259.5,83.3160095 208.684195,32.5 146,32.5 C83.3158049,32.5 32.5,83.3160095 32.5,146 Z" id="Fill-131-Copy-3" stroke="#435CE7" stroke-width="5" opacity="0.140000001"></path>
            <path d="M62.5,146 C62.5,192.11586 99.8841404,229.5 146,229.5 C192.11586,229.5 229.5,192.11586 229.5,146 C229.5,99.8844665 192.115684,62.5 146,62.5 C99.8843159,62.5 62.5,99.8844665 62.5,146 Z" id="Fill-131-Copy-2" stroke="#435CE7" stroke-width="5" opacity="0.140000001"></path>
            <path d="M95,146 C95,174.166576 117.833424,197 146,197 C174.166576,197 197,174.166576 197,146 C197,117.833633 174.166459,95 146,95 C117.833541,95 95,117.833633 95,146 Z M90,146 C90,115.072327 115.072,90 146,90 C176.928,90 202,115.072327 202,146 C202,176.928 176.928,202 146,202 C115.072,202 90,176.928 90,146 Z" id="Combined-Shape" fill="#D9DDF0" fill-rule="nonzero"></path>
            <g id="Group-10" transform="translate(120.000000, 120.000000)">
                <path d="M0,26 C0,11.640723 11.6405714,0 26,0 C40.3594286,0 52,11.640723 52,26 C52,40.3594286 40.3594286,52 26,52 C11.6405714,52 0,40.3594286 0,26 Z M30.4269594,25.9716416 C34.6271888,25.7323365 37.1715527,23.5288532 36.9909869,20.2351692 C36.8069516,16.8840043 33.4220591,14.819458 30.0352055,15.0124508 C24.5158048,15.3268087 20.4570714,20.2796946 20,25.9406674 C20.7495669,25.7612258 21.5385052,25.6540076 22.2824907,25.611716 C25.3831844,25.4351038 27.3264165,26.1482538 30.4269594,25.9716416 Z M21.5551127,37.9886794 C26.7498081,37.7028514 30.5699122,33.2001934 31,28.0538438 C30.2945494,28.2170087 29.5520478,28.3145027 28.8517843,28.3529795 C25.933501,28.5135408 24.1043683,27.8652205 21.1862332,28.0257817 C17.2331902,28.243335 14.8383631,30.246445 15.0085012,33.2406953 C15.1816034,36.2873088 18.3673947,38.1641396 21.5551127,37.9886794 Z" id="Combined-Shape" fill="#4360DF"></path>
                <g id="Group-8" transform="translate(15.000000, 28.000000)"></g>
            </g>
        </g>
    </g>
</svg>